<svg xmlns="http://www.w3.org/2000/svg" width="1200" height="380" viewBox="0 0 1200 380" role="img" aria-labelledby="title desc">
  <title id="title">From signals to systems — Qin-tuo</title>
  <desc id="desc">Circuit traces flow into a robot arm and a compute grid. An open engineering workbench.</desc>
  <defs><pattern id="grid" width="32" height="32" patternUnits="userSpaceOnUse"><path d="M32 0H0V32" fill="none" stroke="#263835" stroke-width=".7"/></pattern></defs>
  <rect width="1200" height="380" rx="16" fill="#111c1b"/>
  <rect x="600" width="600" height="380" fill="url(#grid)"/>
  <path d="M48 43h24" stroke="#65d5b4" stroke-width="3"/>
  <g font-family="ui-monospace, SFMono-Regular, Consolas, monospace" font-size="13" letter-spacing="2" fill="#a0bab2">
    <text x="86" y="48">QIN-TUO / OPEN WORKBENCH</text>
    <text x="48" y="340">ROBOTICS · EDGE INFERENCE · SYSTEMS</text>
    <text x="1118" y="48" text-anchor="end" fill="#65d5b4">01—03</text>
  </g>
  <g font-family="Helvetica Neue, Helvetica, Arial, sans-serif" font-size="64" font-weight="500" letter-spacing="-2" fill="#f2f0e9">
    <text x="46" y="170">From signals</text><text x="46" y="247">to systems.</text>
  </g>
  <text x="49" y="297" font-family="ui-monospace, SFMono-Regular, Consolas, monospace" font-size="15" fill="#a0bab2">Build. Measure. Understand.</text>
  <g fill="none" stroke="#58877a" stroke-width="2" stroke-linecap="round" stroke-linejoin="round">
    <path d="M623 188h39l23 23h47M605 220h37l22 22h68M620 279h44l30-30h38"/>
    <rect x="732" y="195" width="52" height="66" rx="5"/>
    <path d="M745 205v46m12-46v46m13-46v46" stroke="#345a50"/>
    <path d="M784 228h32l29 29h33M893 185h49l34-34h57M893 284h51l35-35h54"/>
    <path d="M907 202h44l30-30h52" stroke="#65d5b4"/>
  </g>
  <g fill="#111c1b" stroke="#65d5b4" stroke-width="2"><circle cx="623" cy="188" r="4"/><circle cx="605" cy="220" r="4"/><circle cx="620" cy="279" r="4"/></g>
  <g fill="none" stroke="#d9e6df" stroke-linecap="round" stroke-linejoin="round">
    <path d="M848 311h67m-55-12h43v12" stroke-width="3"/>
    <path d="M878 299v-42l-41-46 33-52" stroke-width="12"/>
    <path d="M870 159l33 25m-6-11 16 10-10 16" stroke-width="5"/>
  </g>
  <g fill="#111c1b" stroke="#65d5b4" stroke-width="3"><circle cx="878" cy="257" r="10"/><circle cx="837" cy="211" r="10"/><circle cx="870" cy="159" r="8"/></g>
  <g fill="#203d34" stroke="#58877a" stroke-width="1.5">
    <rect x="1033" y="139" width="25" height="25" rx="3"/><rect x="1066" y="139" width="25" height="25" rx="3"/><rect x="1099" y="139" width="25" height="25" rx="3"/>
    <rect x="1033" y="172" width="25" height="25" rx="3" fill="#65d5b4"/><rect x="1066" y="172" width="25" height="25" rx="3"/><rect x="1099" y="172" width="25" height="25" rx="3"/>
    <rect x="1033" y="205" width="25" height="25" rx="3"/><rect x="1066" y="205" width="25" height="25" rx="3" fill="#65d5b4"/><rect x="1099" y="205" width="25" height="25" rx="3"/>
    <rect x="1033" y="238" width="25" height="25" rx="3"/><rect x="1066" y="238" width="25" height="25" rx="3"/><rect x="1099" y="238" width="25" height="25" rx="3" fill="#65d5b4"/>
  </g>
  <g font-family="ui-monospace, SFMono-Regular, Consolas, monospace" font-size="11" letter-spacing="1.5" fill="#a0bab2" text-anchor="middle"><text x="705" y="323">SIGNAL</text><text x="878" y="323">MOTION</text><text x="1080" y="323">COMPUTE</text></g>
  <path d="M48 365H1152" stroke="#304b43"/>
</svg>
